<?xml version="1.0" standalone="no"?><svg viewBox="0 0 1024 1024" version="1.1" xmlns="http://www.w3.org/2000/svg"  width="200" height="200"><path d="M512 64C265.6 64 64 265.6 64 512s201.6 448 448 448 448-201.6 448-448S758.4 64 512 64zM131.2 544h128c3.2 57.6 9.6 112 22.4 160H179.2c-25.6-48-44.8-102.4-48-160zM544 256V134.4c41.6 16 80 57.6 108.8 121.6H544z m134.4 64c12.8 48 22.4 102.4 25.6 160h-160v-160h134.4zM480 134.4V256h-108.8c28.8-64 67.2-105.6 108.8-121.6z m0 185.6v160h-160c3.2-57.6 12.8-112 25.6-160H480z m-224 160H128c6.4-57.6 22.4-112 51.2-160h99.2c-12.8 48-19.2 102.4-22.4 160z m64 64h160v160h-134.4c-12.8-48-22.4-102.4-25.6-160z m160 224v121.6c-41.6-16-80-60.8-108.8-121.6H480z m64 121.6V768h108.8c-28.8 64-67.2 105.6-108.8 121.6z m0-185.6v-160h160c-3.2 57.6-12.8 112-25.6 160H544z m224-160h128c-6.4 57.6-22.4 112-51.2 160h-99.2c12.8-48 19.2-102.4 22.4-160z m0-64c-3.2-57.6-9.6-112-22.4-160h99.2c28.8 48 44.8 102.4 51.2 160h-128z m28.8-224h-73.6c-12.8-35.2-28.8-64-48-89.6 48 22.4 89.6 51.2 121.6 89.6z m-448-89.6C329.6 192 313.6 220.8 300.8 256H227.2c32-38.4 73.6-67.2 121.6-89.6zM227.2 768h73.6c12.8 35.2 28.8 64 48 89.6-48-22.4-89.6-51.2-121.6-89.6z m448 89.6c19.2-25.6 35.2-57.6 48-89.6h73.6c-32 38.4-73.6 67.2-121.6 89.6z" /></svg>