<svg class="icon" viewBox="0 0 1024 1024" xmlns="http://www.w3.org/2000/svg" width="200" height="200"><path d="M130 562.5c0-19.33 15.67-35 35-35s35 15.67 35 35C200 735.089 339.911 875 512.5 875S825 735.089 825 562.5 685.089 250 512.5 250c-19.33 0-35-15.67-35-35s15.67-35 35-35C723.749 180 895 351.251 895 562.5S723.749 945 512.5 945 130 773.749 130 562.5z" fill="#2F54EB"/><path d="m482.657 214.747 79.355 79.356c10.74 10.74 10.74 28.151 0 38.89-10.74 10.74-28.151 10.74-38.89 0l-85.573-85.572c-18.045-18.045-18.045-47.302 0-65.348l85.766-85.766c10.74-10.74 28.152-10.74 38.891 0 10.74 10.74 10.74 28.151 0 38.89l-79.55 79.55z" fill="#2F54EB"/></svg>