<svg class="icon" viewBox="0 0 1024 1024" xmlns="http://www.w3.org/2000/svg" width="200" height="200"><path d="M716.8 76.8a230.4 230.4 0 0 1 230.4 230.4v409.6a230.4 230.4 0 0 1-230.4 230.4H307.2A230.4 230.4 0 0 1 76.8 716.8V307.2A230.4 230.4 0 0 1 307.2 76.8h409.6m0-76.8H307.2A307.2 307.2 0 0 0 0 307.2v409.6A307.2 307.2 0 0 0 307.2 1024h409.6A307.2 307.2 0 0 0 1024 716.8V307.2A307.2 307.2 0 0 0 716.8 0z"/><path d="m319.744 309.76-19.2 22.272h202.752c0 23.808 0 45.824-1.792 66.304h34.56v39.936h-37.632c0 9.472-2.304 21.248-4.864 35.584h23.296v32.512H486.4l-3.072 10.496 17.152 13.056a763.136 763.136 0 0 1-96 39.936l118.784-4.352c20.736-10.752 46.592-25.6 76.8-41.728l44.8 29.44a984.32 984.32 0 0 1-222.464 92.16q102.4-4.096 220.672-12.288c-17.152-13.056-30.208-22.528-39.424-28.416l44.288-28.16a1037.056 1037.056 0 0 1 136.448 97.792l-51.2 34.304c-11.52-11.008-25.6-24.064-44.288-39.424l-146.688 8.704v68.096c0 34.56-20.224 51.2-60.928 51.2h-54.016l-11.008-51.2a478.976 478.976 0 0 0 49.664 3.072 15.616 15.616 0 0 0 17.92-17.152v-51.2c-62.464 3.328-128 5.888-200.96 7.936l-13.568-51.2c17.152 1.28 34.304 1.792 51.2 1.792a784.64 784.64 0 0 0 128-39.936l-131.584 5.12-9.728-45.824a146.176 146.176 0 0 0 47.872-5.376 798.464 798.464 0 0 0 75.52-33.792l3.84-13.056H259.584c4.864-30.208 8.192-52.992 10.24-68.096h-37.376v-39.936h42.496c2.304-20.48 4.096-35.84 4.864-46.08l-19.712 17.152-33.28-39.168a329.984 329.984 0 0 0 86.784-102.4l52.736 11.776-15.36 27.136H528.64v43.008zM427.776 729.6a727.808 727.808 0 0 1-167.68 64L236.8 744.448A623.104 623.104 0 0 0 394.752 691.2zm-106.24-296.96-6.656 41.216h87.04a390.912 390.912 0 0 0-61.952-21.504l12.8-19.712zm41.728-68.608H330.24l-4.352 40.96h76.8A337.92 337.92 0 0 0 349.184 384zm44.288 109.824h35.584l6.912-41.216h-86.784a512 512 0 0 1 57.856 20.48zm44.8-68.864 1.792-40.96h-83.456a358.4 358.4 0 0 1 55.808 22.016l-12.288 18.944zm119.296-33.024q-9.216 11.264-27.648 30.72l-33.792-40.704a412.16 412.16 0 0 0 82.176-135.68l54.272 12.288-19.2 43.008h157.952v51.2h-34.304a284.928 284.928 0 0 1-51.2 107.52 469.248 469.248 0 0 0 98.304 43.776l-28.928 51.2a460.8 460.8 0 0 1-108.288-55.808 294.656 294.656 0 0 1-111.104 52.736l-28.928-45.568a270.336 270.336 0 0 0 99.072-43.008 237.568 237.568 0 0 1-48.384-71.68zM614.4 688.896A1068.032 1068.032 0 0 1 781.824 742.4l-32 51.2a926.464 926.464 0 0 0-168.448-57.088zm-9.216-358.4a180.736 180.736 0 0 0 51.2 76.8 244.736 244.736 0 0 0 41.728-76.8z"/></svg>