<svg class="icon" viewBox="0 0 1024 1024" xmlns="http://www.w3.org/2000/svg" width="200" height="200"><path d="M704 288c-1.984 85.6-66.24 157.888-66.24 157.888C637.76 286.656 512 160 512 160s-1.696 94.784-65.376 190.336C382.944 127.392 191.84 0 191.84 0 287.392 350.336 160 477.76 160 732.544 160 882.016 286.528 1024 480 1024c286.624 0 342.048-105.216 371.68-223.776C892.512 636.992 831.36 447.232 704 288zm85.632 496.672C769.056 866.88 745.824 960 480 960c-160.256 0-256-115.648-256-227.456 0-85.632 15.616-155.936 32.128-230.368 20.992-94.368 42.496-190.976 33.184-318.752 98.688 136.608 133.824 317.6 133.824 317.6s91.872-128.992 116.576-188.896C558.624 350.624 576 480 576 608c0 0 84.992-70.016 148.736-175.296 67.136 120.384 91.328 246.24 64.896 351.968z" fill="#d81e06"/><path d="m717.824 537.44-27.2 31.52c-33.696 39.296-65.568 76.544-150.656 119.36-12.192-36.544-23.264-76.768-23.264-138.336v-54.688l-48.576 76.096c-16.384 25.952-29.952 47.456-50.176 76.032-30.688-69.184-52.384-120.352-68.864-166.784l-15.328-43.2-16.64 48.32C296 547.232 276 605.28 276 755.968a16 16 0 1 0 32 0c0-115.488 11.488-172.672 26.88-222.112 16.64 42.304 37.632 90.4 65.184 152l11.264 25.088 16.256-22.144c26.56-36.16 42.368-60.48 59.68-87.776 5.056 47.328 16.736 81.28 28.32 114.88l5.824 16.896 16.192-7.648c86.496-41.088 126.976-78.496 159.104-114.4 4.992 59.648-2.88 124.928-21.568 171.296A15.968 15.968 0 0 0 690.016 804a15.968 15.968 0 0 0 14.816-10.016c24.8-61.568 32.256-149.248 18.944-223.424l-5.952-33.12z" fill="#d81e06"/></svg>